<svg width="264" height="200" viewBox="0 0 264 200" fill="none" xmlns="http://www.w3.org/2000/svg">
<path fill-rule="evenodd" clip-rule="evenodd" d="M104.239 7.81211C105.268 4.69904 103.585 1.33966 100.478 0.305118C97.3709 -0.72942 94.0143 0.951871 92.9772 4.06219C81.9843 37.0298 70.2401 60.6389 59.5117 75.7267C54.1414 83.2792 49.163 88.5012 44.8355 91.7156C40.4424 94.9787 37.2575 95.7887 35.2608 95.6411C33.5847 95.5171 31.7733 94.6509 30.0022 91.769C28.1269 88.7175 26.5516 83.7167 25.8987 76.3823C24.5975 61.7675 27.1114 39.7127 35.4863 10.6314C36.3945 7.47769 34.578 4.18375 31.429 3.27418C28.28 2.3646 24.991 4.18383 24.0828 7.33754C15.5054 37.1217 12.5934 60.7711 14.0772 77.4379C14.8167 85.7443 16.6866 92.7787 19.8948 97.9991C23.2072 103.389 28.1175 107.031 34.3869 107.495C40.3357 107.935 46.3201 105.411 51.9057 101.262C56.2623 98.0264 60.7131 93.5595 65.1869 87.9374C60.0651 103.048 55.3229 116.609 50.8674 128.549C42.2139 134.516 30.0256 143.103 19.9777 152.169C13.0889 158.384 6.65851 165.291 3.06674 172.21C1.24934 175.71 -0.0255418 179.56 0.000388422 183.55C0.0273379 187.696 1.46379 191.61 4.4164 194.965C4.67455 195.259 4.96097 195.526 5.27151 195.763C9.26589 198.811 13.8204 200.497 18.7648 199.87C23.5517 199.263 27.708 196.607 31.2925 193.071C38.3173 186.14 45.0044 173.951 51.9286 157.951C54.7323 151.473 57.6326 144.225 60.6555 136.241C62.5913 134.909 64.3046 133.727 65.7192 132.721L65.7202 132.72C78.1532 123.878 90.771 111.711 100.173 101.904C103.718 98.2066 106.836 94.8133 109.35 92.0144C109.485 92.2744 109.624 92.5338 109.765 92.7927L109.766 92.7931C113.577 99.7478 119.422 104.391 126.402 105.706C133.339 107.014 140.458 104.858 146.548 100.1C148.395 98.6568 150.161 96.9702 151.828 95.0446C152.136 96.4958 152.566 97.8774 153.155 99.1537C154.223 101.468 155.87 103.57 158.29 105.033C160.673 106.473 163.357 107.023 166.078 107.023C171.457 107.023 176.304 105.17 179.998 100.672C180.794 99.7025 181.514 98.637 182.166 97.4819C183.213 99.815 184.655 102.023 186.696 103.753C189.193 105.869 192.209 106.945 195.513 107.019C200.484 107.533 204.387 106.115 207.184 104.259C208.727 105.409 210.497 106.245 212.428 106.744C217.338 108.014 222.684 106.984 227.35 104.8C231.072 103.057 234.729 100.411 237.87 96.9863C238.258 97.8824 238.704 98.7501 239.219 99.5739C241.143 102.65 244.084 105.178 248.215 106.037C252.128 106.85 256.277 105.988 260.446 104.159C263.448 102.841 264.815 99.3359 263.499 96.3297C262.184 93.3235 258.684 91.9546 255.682 93.2721C252.753 94.558 251.23 94.5246 250.627 94.3992C250.244 94.3194 249.827 94.1424 249.279 93.2659C248.634 92.2348 248.016 90.5083 247.595 87.9234C247.183 85.3975 247.015 82.422 247.015 79.1623C247.015 78.1908 247.029 77.2158 247.054 76.2404C247.069 76.0479 247.074 75.8568 247.07 75.6674C247.178 72.1314 247.423 68.5993 247.658 65.2247L247.658 65.223L247.659 65.2114L247.659 65.2058C247.789 63.3338 247.916 61.5104 248.014 59.7618C248.17 56.9751 248.262 54.1688 248.042 51.9489C247.937 50.8874 247.718 49.442 247.105 48.0777C246.485 46.6985 244.856 44.2113 241.515 43.8067C229.837 42.3923 220.828 44.833 214.235 50.1012C207.781 55.2584 204.416 62.5125 202.67 69.2901C200.919 76.0884 200.662 82.9156 200.808 87.9254C200.879 90.3542 201.047 92.4129 201.204 93.9109C201.141 93.9656 201.075 94.0204 201.007 94.0747C200.172 94.7392 198.836 95.4494 196.585 95.1789C196.35 95.1507 196.114 95.1366 195.878 95.1366C195.024 95.1366 194.651 94.9237 194.363 94.6797C193.954 94.3337 193.313 93.5395 192.662 91.809C191.307 88.2087 190.587 82.4613 190.317 74.4101C190.107 68.1313 190.175 60.9588 190.251 52.9912V52.9899C190.271 50.9077 190.291 48.7712 190.307 46.5822C190.334 42.8686 190.349 39.0251 190.325 35.0804H212.521C215.798 35.0804 218.455 32.4196 218.455 29.1373C218.455 25.8551 215.798 23.1943 212.521 23.1943H190.118C190.014 19.738 189.865 16.2302 189.657 12.6878C189.467 9.47257 186.755 6.99348 183.541 7.09762C180.327 7.20175 177.78 9.85121 177.799 13.072C177.996 47.2635 177.423 68.6626 175.019 81.4925C173.812 87.9299 172.282 91.3557 170.832 93.1215C169.704 94.4944 168.43 95.1366 166.078 95.1366C164.933 95.1366 164.51 94.9094 164.422 94.8562L164.42 94.8549C164.366 94.8225 164.179 94.7096 163.928 94.1659C163.258 92.7139 162.851 89.82 163.08 84.6276C163.274 80.2343 163.862 75.0212 164.554 68.8779L164.556 68.861L164.567 68.7639C164.657 67.9597 164.75 67.1395 164.843 66.3033L164.931 65.514C166.303 58.4789 167.009 50.5822 166.895 41.8606C166.853 38.645 164.264 36.0462 161.054 35.996C157.843 35.9458 155.175 38.4623 155.033 41.675C154.683 49.57 153.935 56.9798 153.181 63.7855C150.371 77.6788 144.777 86.4081 139.248 90.728C135.302 93.8114 131.562 94.5841 128.597 94.0253C125.674 93.4744 122.572 91.4568 120.17 87.0742C119.648 86.1211 119.187 85.1532 118.784 84.1749C119.269 83.984 119.778 83.7797 120.307 83.5623C124.305 81.9195 129.617 79.4626 134.542 76.2779C139.33 73.1818 144.454 68.9559 147.214 63.5206C148.648 60.6963 149.481 57.4669 149.195 53.9516C148.911 50.4391 147.544 47.0622 145.241 43.8847C140.514 37.3644 133.937 34.5882 127.055 36.1747C120.817 37.6126 115.577 42.3629 111.896 47.9341C106.621 55.9168 103.409 67.2983 105.106 78.8688C104.47 79.6051 103.684 80.5084 102.763 81.5519C100.059 84.6167 96.2043 88.8825 91.6125 93.6717C84.8346 100.741 76.5638 108.833 68.0891 115.876C76.1527 93.1008 85.1062 65.9005 95.3516 34.7755L95.3616 34.7449L95.3638 34.7386C98.2191 26.0642 101.175 17.0851 104.239 7.81211ZM235.205 75.476C235.323 71.4937 235.602 67.4745 235.847 63.9463C235.969 62.186 236.083 60.5478 236.164 59.0975C236.248 57.598 236.295 56.3406 236.303 55.3122C229.268 55.0941 224.709 56.9378 221.637 59.3923C217.907 62.3729 215.538 66.9192 214.162 72.2586C212.793 77.5774 212.544 83.1839 212.672 87.5786C212.726 89.4444 212.847 91.0477 212.966 92.2601C213.004 92.38 213.038 92.5018 213.069 92.6256C213.508 94.3852 214.333 94.9608 215.395 95.2354C216.841 95.6092 219.294 95.4505 222.324 94.0319C228.269 91.2482 234.23 84.6229 235.205 75.476ZM27.9216 161C32.6397 156.743 37.8324 152.616 42.9118 148.817C42.2824 150.325 41.6582 151.794 41.0391 153.225C34.1315 169.186 28.1958 179.441 22.9632 184.603C20.419 187.114 18.538 187.918 17.2735 188.078C16.2535 188.207 14.8905 188.016 12.9689 186.677C12.1686 185.618 11.8758 184.589 11.8685 183.472C11.8592 182.048 12.3262 180.14 13.5969 177.693C16.1813 172.714 21.3117 166.964 27.9216 161ZM128.104 66.2925C124.291 68.7582 120.039 70.788 116.525 72.2653C116.575 65.5942 118.662 59.2324 121.793 54.4939C124.542 50.3334 127.543 48.2589 129.717 47.7579C131.246 47.4055 133.25 47.5762 135.636 50.8677C136.889 52.5962 137.287 53.9331 137.366 54.9138C137.445 55.8915 137.243 56.9345 136.634 58.1331C135.309 60.7439 132.319 63.5666 128.104 66.2925ZM163.941 16.7769C160.664 16.7769 158.007 19.4377 158.007 22.7199C158.007 26.0022 160.664 28.663 163.941 28.663H164.054C167.331 28.663 169.988 26.0022 169.988 22.7199C169.988 19.4377 167.331 16.7769 164.054 16.7769H163.941Z" fill="#17150F"/>
</svg>
