<svg width="328" height="264" viewBox="0 0 328 264" fill="none" xmlns="http://www.w3.org/2000/svg">
<g filter="url(#filter0_d_421_9340)">
<path fill-rule="evenodd" clip-rule="evenodd" d="M136.239 39.8121C137.268 36.699 135.585 33.3397 132.478 32.3051C129.371 31.2706 126.014 32.9519 124.977 36.0622C113.984 69.0298 102.24 92.6389 91.5117 107.727C86.1414 115.279 81.163 120.501 76.8355 123.716C72.4424 126.979 69.2575 127.789 67.2608 127.641C65.5847 127.517 63.7733 126.651 62.0022 123.769C60.1269 120.718 58.5516 115.717 57.8987 108.382C56.5975 93.7675 59.1114 71.7127 67.4863 42.6314C68.3945 39.4777 66.578 36.1838 63.429 35.2742C60.28 34.3646 56.991 36.1838 56.0828 39.3375C47.5054 69.1217 44.5934 92.7711 46.0772 109.438C46.8167 117.744 48.6866 124.779 51.8948 129.999C55.2072 135.389 60.1175 139.031 66.3869 139.495C72.3357 139.935 78.3201 137.411 83.9057 133.262C88.2623 130.026 92.7131 125.559 97.1869 119.937C92.0651 135.048 87.3229 148.609 82.8674 160.549C74.2139 166.516 62.0256 175.103 51.9777 184.169C45.0889 190.384 38.6585 197.291 35.0667 204.21C33.2493 207.71 31.9745 211.56 32.0004 215.55C32.0273 219.696 33.4638 223.61 36.4164 226.965C36.6745 227.259 36.961 227.526 37.2715 227.763C41.2659 230.811 45.8204 232.497 50.7648 231.87C55.5517 231.263 59.708 228.607 63.2925 225.071C70.3173 218.14 77.0044 205.951 83.9286 189.951C86.7323 183.473 89.6326 176.225 92.6555 168.241C94.5913 166.909 96.3046 165.727 97.7192 164.721L97.7202 164.72C110.153 155.878 122.771 143.711 132.173 133.904C135.718 130.207 138.836 126.813 141.35 124.014C141.485 124.274 141.624 124.534 141.765 124.793L141.766 124.793C145.577 131.748 151.422 136.391 158.402 137.706C165.339 139.014 172.458 136.858 178.548 132.1C180.395 130.657 182.161 128.97 183.828 127.045C184.136 128.496 184.566 129.877 185.155 131.154C186.223 133.468 187.87 135.57 190.29 137.033C192.673 138.473 195.357 139.023 198.078 139.023C203.457 139.023 208.304 137.17 211.998 132.672C212.794 131.703 213.514 130.637 214.166 129.482C215.213 131.815 216.655 134.023 218.696 135.753C221.193 137.869 224.209 138.945 227.513 139.019C232.484 139.533 236.387 138.115 239.184 136.259C240.727 137.409 242.497 138.245 244.428 138.744C249.338 140.014 254.684 138.984 259.35 136.8C263.072 135.057 266.729 132.411 269.87 128.986C270.258 129.882 270.704 130.75 271.219 131.574C273.143 134.65 276.084 137.178 280.215 138.037C284.128 138.85 288.277 137.988 292.446 136.159C295.448 134.841 296.815 131.336 295.499 128.33C294.184 125.323 290.684 123.955 287.682 125.272C284.753 126.558 283.23 126.525 282.627 126.399C282.244 126.319 281.827 126.142 281.279 125.266C280.634 124.235 280.016 122.508 279.595 119.923C279.183 117.398 279.015 114.422 279.015 111.162C279.015 110.191 279.029 109.216 279.054 108.24C279.069 108.048 279.074 107.857 279.07 107.667C279.178 104.131 279.423 100.599 279.658 97.2247L279.658 97.223L279.659 97.2114L279.659 97.2058C279.789 95.3338 279.916 93.5104 280.014 91.7618C280.17 88.9751 280.262 86.1688 280.042 83.9489C279.937 82.8874 279.718 81.442 279.105 80.0777C278.485 78.6985 276.856 76.2113 273.515 75.8067C261.837 74.3923 252.828 76.833 246.235 82.1012C239.781 87.2584 236.416 94.5125 234.67 101.29C232.919 108.088 232.662 114.916 232.808 119.925C232.879 122.354 233.047 124.413 233.204 125.911C233.141 125.966 233.075 126.02 233.007 126.075C232.172 126.739 230.836 127.449 228.585 127.179C228.35 127.151 228.114 127.137 227.878 127.137C227.024 127.137 226.651 126.924 226.363 126.68C225.954 126.334 225.313 125.539 224.662 123.809C223.307 120.209 222.587 114.461 222.317 106.41C222.107 100.131 222.175 92.9588 222.251 84.9912V84.9899C222.271 82.9077 222.291 80.7712 222.307 78.5822C222.334 74.8686 222.349 71.0251 222.325 67.0804H244.521C247.798 67.0804 250.455 64.4196 250.455 61.1373C250.455 57.8551 247.798 55.1943 244.521 55.1943H222.118C222.014 51.738 221.865 48.2302 221.657 44.6878C221.467 41.4726 218.755 38.9935 215.541 39.0976C212.327 39.2018 209.78 41.8512 209.799 45.072C209.996 79.2635 209.423 100.663 207.019 113.492C205.812 119.93 204.282 123.356 202.832 125.122C201.704 126.494 200.43 127.137 198.078 127.137C196.933 127.137 196.51 126.909 196.422 126.856L196.42 126.855C196.366 126.823 196.179 126.71 195.928 126.166C195.258 124.714 194.851 121.82 195.08 116.628C195.274 112.234 195.862 107.021 196.554 100.878L196.556 100.861L196.567 100.764C196.657 99.9597 196.75 99.1395 196.843 98.3033L196.931 97.514C198.303 90.4789 199.009 82.5822 198.895 73.8606C198.853 70.645 196.264 68.0462 193.054 67.996C189.843 67.9458 187.175 70.4623 187.033 73.675C186.683 81.57 185.935 88.9798 185.181 95.7855C182.371 109.679 176.777 118.408 171.248 122.728C167.302 125.811 163.562 126.584 160.597 126.025C157.674 125.474 154.572 123.457 152.17 119.074C151.648 118.121 151.187 117.153 150.784 116.175C151.269 115.984 151.778 115.78 152.307 115.562C156.305 113.92 161.617 111.463 166.542 108.278C171.33 105.182 176.454 100.956 179.214 95.5206C180.648 92.6963 181.481 89.4669 181.195 85.9516C180.911 82.4391 179.544 79.0622 177.241 75.8847C172.514 69.3644 165.937 66.5882 159.055 68.1747C152.817 69.6126 147.577 74.3629 143.896 79.9341C138.621 87.9168 135.409 99.2983 137.106 110.869C136.47 111.605 135.684 112.508 134.763 113.552C132.059 116.617 128.204 120.882 123.612 125.672C116.835 132.741 108.564 140.833 100.089 147.876C108.153 125.101 117.106 97.9005 127.352 66.7755L127.362 66.7449L127.364 66.7386C130.219 58.0642 133.175 49.0851 136.239 39.8121ZM267.205 107.476C267.323 103.494 267.602 99.4745 267.847 95.9463C267.969 94.186 268.083 92.5478 268.164 91.0975C268.248 89.598 268.295 88.3406 268.303 87.3122C261.268 87.0941 256.709 88.9378 253.637 91.3923C249.907 94.3729 247.538 98.9192 246.162 104.259C244.793 109.577 244.544 115.184 244.672 119.579C244.726 121.444 244.847 123.048 244.966 124.26C245.004 124.38 245.038 124.502 245.069 124.626C245.508 126.385 246.333 126.961 247.395 127.235C248.841 127.609 251.294 127.45 254.324 126.032C260.269 123.248 266.23 116.623 267.205 107.476ZM59.9216 193C64.6397 188.743 69.8324 184.616 74.9118 180.817C74.2824 182.325 73.6582 183.794 73.0391 185.225C66.1315 201.186 60.1958 211.441 54.9632 216.603C52.419 219.114 50.538 219.918 49.2735 220.078C48.2535 220.207 46.8905 220.016 44.9689 218.677C44.1686 217.618 43.8758 216.589 43.8685 215.472C43.8592 214.048 44.3262 212.14 45.5969 209.693C48.1813 204.714 53.3117 198.964 59.9216 193ZM160.104 98.2925C156.291 100.758 152.039 102.788 148.525 104.265C148.575 97.5942 150.662 91.2324 153.793 86.4939C156.542 82.3334 159.543 80.2589 161.717 79.7579C163.246 79.4055 165.25 79.5762 167.636 82.8677C168.889 84.5962 169.287 85.9331 169.366 86.9138C169.445 87.8915 169.243 88.9345 168.634 90.1331C167.309 92.7439 164.319 95.5666 160.104 98.2925ZM195.941 48.7769C192.664 48.7769 190.007 51.4377 190.007 54.7199C190.007 58.0022 192.664 60.663 195.941 60.663H196.054C199.331 60.663 201.988 58.0022 201.988 54.7199C201.988 51.4377 199.331 48.7769 196.054 48.7769H195.941Z" fill="#FDF6F2"/>
</g>
<defs>
<filter id="filter0_d_421_9340" x="0" y="0" width="328" height="264" filterUnits="userSpaceOnUse" color-interpolation-filters="sRGB">
<feFlood flood-opacity="0" result="BackgroundImageFix"/>
<feColorMatrix in="SourceAlpha" type="matrix" values="0 0 0 0 0 0 0 0 0 0 0 0 0 0 0 0 0 0 127 0" result="hardAlpha"/>
<feOffset/>
<feGaussianBlur stdDeviation="16"/>
<feComposite in2="hardAlpha" operator="out"/>
<feColorMatrix type="matrix" values="0 0 0 0 1 0 0 0 0 0.984314 0 0 0 0 0.596078 0 0 0 1 0"/>
<feBlend mode="normal" in2="BackgroundImageFix" result="effect1_dropShadow_421_9340"/>
<feBlend mode="normal" in="SourceGraphic" in2="effect1_dropShadow_421_9340" result="shape"/>
</filter>
</defs>
</svg>
