<svg width="178" height="264" viewBox="0 0 178 264" fill="none" xmlns="http://www.w3.org/2000/svg">
<g filter="url(#filter0_d_421_9346)">
<path fill-rule="evenodd" clip-rule="evenodd" d="M136.385 39.8121C137.415 36.699 135.73 33.3397 132.618 32.3051C129.507 31.2706 126.145 32.9519 125.107 36.0622C114.099 69.0298 102.338 92.6389 91.5946 107.727C86.2169 115.279 81.2315 120.501 76.898 123.716C72.4988 126.979 69.3094 127.789 67.31 127.641C65.6315 127.517 63.8176 126.651 62.0441 123.769C60.1662 120.718 58.5887 115.717 57.9348 108.382C56.6318 93.7675 59.1492 71.7127 67.5358 42.6314C68.4453 39.4777 66.6262 36.1838 63.4728 35.2742C60.3194 34.3646 57.0258 36.1838 56.1164 39.3375C47.527 69.1217 44.6109 92.7711 46.0968 109.438C46.8374 117.744 48.7099 124.779 51.9225 129.999C55.2395 135.389 60.1567 139.031 66.4348 139.495C72.392 139.935 78.3847 137.411 83.9781 133.262C88.3408 130.026 92.7978 125.559 97.2778 119.937C92.1489 135.048 87.4 148.609 82.9383 160.549C74.2727 166.516 62.0674 175.103 52.0056 184.169C45.1072 190.384 38.6678 197.291 35.071 204.21C33.2511 207.71 31.9744 211.56 32.0004 215.55C32.0274 219.696 33.4658 223.61 36.4226 226.965C36.6811 227.259 36.9679 227.526 37.2789 227.763C41.2788 230.811 45.8396 232.497 50.791 231.87C55.5845 231.263 59.7466 228.607 63.3361 225.071C70.3707 218.14 77.0672 205.951 84.001 189.951C86.8086 183.473 89.713 176.225 92.7401 168.241L97.8109 164.721L97.8119 164.72C110.262 155.878 122.898 143.711 132.313 133.904C135.863 130.207 138.985 126.813 141.502 124.014C141.502 124.014 148.547 116.259 145.003 110.982C141.46 105.705 134.907 113.552 134.907 113.552C132.199 116.617 128.338 120.882 123.74 125.672C116.953 132.741 108.671 140.833 100.184 147.876C108.259 125.101 117.225 97.9006 127.484 66.7757L127.485 66.7755L127.491 66.7565L127.499 66.7308C130.358 58.0588 133.317 49.0824 136.385 39.8121ZM59.9605 193C64.6853 188.743 69.8852 184.616 74.9717 180.817C74.3413 182.325 73.7163 183.794 73.0963 185.225C66.1791 201.186 60.2351 211.441 54.9952 216.603C52.4475 219.114 50.5639 219.918 49.2976 220.078C48.2762 220.207 46.9113 220.015 44.987 218.677C44.1856 217.618 43.8923 216.589 43.8851 215.472C43.8758 214.048 44.3435 212.14 45.6159 209.693C48.2039 204.714 53.3415 198.964 59.9605 193Z" fill="#FDF6F2"/>
</g>
<defs>
<filter id="filter0_d_421_9346" x="0" y="0" width="178" height="264" filterUnits="userSpaceOnUse" color-interpolation-filters="sRGB">
<feFlood flood-opacity="0" result="BackgroundImageFix"/>
<feColorMatrix in="SourceAlpha" type="matrix" values="0 0 0 0 0 0 0 0 0 0 0 0 0 0 0 0 0 0 127 0" result="hardAlpha"/>
<feOffset/>
<feGaussianBlur stdDeviation="16"/>
<feComposite in2="hardAlpha" operator="out"/>
<feColorMatrix type="matrix" values="0 0 0 0 1 0 0 0 0 0.984314 0 0 0 0 0.596078 0 0 0 1 0"/>
<feBlend mode="normal" in2="BackgroundImageFix" result="effect1_dropShadow_421_9346"/>
<feBlend mode="normal" in="SourceGraphic" in2="effect1_dropShadow_421_9346" result="shape"/>
</filter>
</defs>
</svg>
