<svg width="114" height="200" viewBox="0 0 114 200" fill="none" xmlns="http://www.w3.org/2000/svg">
<path fill-rule="evenodd" clip-rule="evenodd" d="M104.385 7.81211C105.415 4.69903 103.73 1.33966 100.618 0.305117C97.5067 -0.72942 94.1454 0.951871 93.1069 4.06219C82.0986 37.0298 70.338 60.6389 59.5946 75.7267C54.2169 83.2792 49.2315 88.5012 44.898 91.7156C40.4988 94.9787 37.3094 95.7887 35.31 95.6411C33.6315 95.5171 31.8176 94.6509 30.0441 91.769C28.1662 88.7175 26.5887 83.7167 25.9348 76.3823C24.6318 61.7675 27.1492 39.7127 35.5358 10.6314C36.4453 7.47769 34.6262 4.18375 31.4728 3.27418C28.3194 2.3646 25.0258 4.18383 24.1164 7.33754C15.527 37.1217 12.6109 60.7711 14.0968 77.4379C14.8374 85.7443 16.7099 92.7787 19.9225 97.999C23.2395 103.389 28.1567 107.031 34.4348 107.495C40.392 107.935 46.3847 105.411 51.9781 101.262C56.3408 98.0264 60.7978 93.5595 65.2778 87.9374C60.1489 103.048 55.4 116.609 50.9383 128.549C42.2727 134.516 30.0674 143.103 20.0056 152.169C13.1072 158.384 6.6678 165.291 3.07102 172.21C1.25108 175.71 -0.0255774 179.56 0.000388964 183.55C0.027376 187.696 1.46583 191.61 4.42256 194.965C4.68107 195.259 4.96789 195.526 5.27886 195.763C9.27881 198.811 13.8396 200.497 18.791 199.87C23.5845 199.263 27.7466 196.607 31.3361 193.071C38.3707 186.14 45.0672 173.951 52.001 157.951C54.8086 151.473 57.713 144.225 60.7401 136.241L65.8109 132.721L65.8119 132.72C78.2622 123.878 90.8976 111.711 100.313 101.904C103.863 98.2066 106.985 94.8133 109.502 92.0144C109.502 92.0144 116.547 84.2595 113.003 78.982C109.46 73.7046 102.907 81.5519 102.907 81.5519C100.199 84.6167 96.3384 88.8824 91.7402 93.6717C84.9529 100.741 76.6706 108.833 68.1841 115.876C76.2589 93.1008 85.2248 65.9006 95.4845 34.7757L95.4846 34.7755L95.4908 34.7565L95.4993 34.7308C98.3578 26.0588 101.317 17.0824 104.385 7.81211ZM27.9605 161C32.6853 156.743 37.8852 152.616 42.9717 148.817C42.3413 150.325 41.7163 151.794 41.0963 153.225C34.1791 169.186 28.2351 179.441 22.9952 184.603C20.4475 187.114 18.5639 187.918 17.2976 188.078C16.2762 188.207 14.9113 188.015 12.987 186.677C12.1856 185.618 11.8923 184.589 11.8851 183.472C11.8758 182.048 12.3435 180.14 13.6159 177.693C16.2039 172.714 21.3415 166.964 27.9605 161Z" fill="#FFE27D"/>
</svg>
